<?xml version="1.0" encoding="UTF-8"?><svg id="b" xmlns="http://www.w3.org/2000/svg" viewBox="0 0 86.27 86.27"><defs><style>.j{fill:#fff;stroke-width:4px;}.j,.k{stroke:#221f20;stroke-miterlimit:10;}.k{fill:#221f20;stroke-width:.75px;}</style></defs><g id="c"><circle class="j" cx="43.13" cy="43.13" r="11.63"/><g id="d"><path class="k" d="m81.63,53.89c-8.76,3.41-19.58.53-20.92-2.91-1.34-3.44,11.38-5.4,16.06-9.55,2.76-2.45,7.32.36,8.66,3.8,1.34,3.44-.36,7.32-3.8,8.66Z"/></g><g id="e"><path class="k" d="m53.06,81.85c-7.33-5.88-10.25-16.69-7.94-19.57,2.31-2.88,10.36,7.15,16.3,9.13,3.5,1.17,3.34,6.52,1.03,9.4-2.31,2.88-6.52,3.34-9.4,1.03Z"/></g><g id="f"><path class="k" d="m14.57,71.09c1.43-9.29,9.33-17.22,12.98-16.66,3.65.56-1.01,12.55.24,18.69.74,3.62-3.97,6.16-7.62,5.6-3.65-.56-6.16-3.97-5.6-7.62Z"/></g><g id="g"><path class="k" d="m4.64,32.37c8.76-3.41,19.58-.53,20.92,2.91,1.34,3.44-11.38,5.4-16.06,9.55-2.76,2.45-7.32-.36-8.66-3.8-1.34-3.44.36-7.32,3.8-8.66Z"/></g><g id="h"><path class="k" d="m33.2,4.41c7.33,5.88,10.25,16.69,7.94,19.57-2.31,2.88-10.36-7.15-16.3-9.13-3.5-1.17-3.34-6.52-1.03-9.4,2.31-2.88,6.52-3.34,9.4-1.03Z"/></g><g id="i"><path class="k" d="m71.7,15.17c-1.43,9.29-9.33,17.22-12.98,16.66-3.65-.56,1.01-12.55-.24-18.69-.74-3.62,3.97-6.16,7.62-5.6,3.65.56,6.16,3.97,5.6,7.62Z"/></g></g></svg>