<?xml version="1.0" encoding="UTF-8"?><svg id="b" xmlns="http://www.w3.org/2000/svg" viewBox="0 0 85.47 85.47"><defs><style>.j{fill:#221f20;}.k,.l{fill:none;stroke:#221f20;stroke-linecap:round;stroke-miterlimit:10;stroke-width:2px;}.l{opacity:.84;}</style></defs><g id="c"><circle class="j" cx="42.73" cy="42.73" r="3.64"/><g id="d"><line class="k" x1="42.73" y1="46.37" x2="42.73" y2="84.47"/><line class="l" x1="42.73" y1="66.77" x2="29.54" y2="79.96"/><line class="l" x1="42.73" y1="66.77" x2="55.92" y2="79.96"/></g><g id="e"><line class="k" x1="39.58" y1="44.55" x2="6.59" y2="63.6"/><line class="l" x1="21.92" y1="54.75" x2="3.9" y2="49.92"/><line class="l" x1="21.92" y1="54.75" x2="17.09" y2="72.77"/></g><g id="f"><line class="k" x1="39.58" y1="40.91" x2="6.59" y2="21.87"/><line class="l" x1="21.92" y1="30.72" x2="17.09" y2="12.7"/><line class="l" x1="21.92" y1="30.72" x2="3.9" y2="35.54"/></g><g id="g"><line class="k" x1="42.73" y1="39.1" x2="42.73" y2="1"/><line class="l" x1="42.73" y1="18.7" x2="55.92" y2="5.51"/><line class="l" x1="42.73" y1="18.7" x2="29.54" y2="5.51"/></g><g id="h"><line class="k" x1="45.88" y1="40.91" x2="78.87" y2="21.87"/><line class="l" x1="63.55" y1="30.72" x2="81.56" y2="35.54"/><line class="l" x1="63.55" y1="30.72" x2="68.37" y2="12.7"/></g><g id="i"><line class="k" x1="45.88" y1="44.55" x2="78.87" y2="63.6"/><line class="l" x1="63.55" y1="54.75" x2="68.37" y2="72.77"/><line class="l" x1="63.55" y1="54.75" x2="81.56" y2="49.92"/></g></g></svg>